<svg width="70" height="22" viewBox="0 0 70 22" fill="none" xmlns="http://www.w3.org/2000/svg">
<g clip-path="url(#clip0_1960_420)">
<path d="M20.0428 5.84961H17.4127V21.6943H20.0428V5.84961Z" fill="#06263B"/>
<path d="M26.6177 -0.0473633H23.9875V21.6941H26.6177V-0.0473633Z" fill="#06263B"/>
<path d="M37.6337 5.38551H33.1788L33.2001 0.0112305L30.5912 1.58737L30.5699 7.89469H35.4464L37.6337 5.38551Z" fill="#06263B"/>
<path d="M34.6736 19.2417C34.3626 19.2598 34.0525 19.1944 33.7754 19.0524C33.5736 18.935 33.4149 18.756 33.3227 18.5417C33.1994 18.0707 33.1524 17.583 33.1835 17.0971V8.76855H32.924C31.5598 9.06516 30.5684 9.7778 30.5684 11.7236V16.9529C30.5684 18.5296 30.6756 19.5634 30.89 20.0542C31.1192 20.562 31.5097 20.9802 32.001 21.2437C32.6901 21.5818 33.4544 21.7377 34.2209 21.6967C34.8893 21.6868 35.5549 21.6085 36.2073 21.4629L35.8282 19.1419C35.446 19.2013 35.0603 19.2346 34.6736 19.2417Z" fill="#06263B"/>
<path d="M44.6997 5.51318C42.562 5.53703 40.5206 6.4076 39.0249 7.93369C37.529 9.45979 36.7006 11.5166 36.7217 13.6524C36.702 15.7873 37.5312 17.8428 39.0272 19.3675C40.5233 20.8922 42.564 21.7615 44.7009 21.7845C46.3318 21.7746 47.9205 21.2665 49.2537 20.3284C50.5868 19.3902 51.601 18.067 52.1595 16.5364H49.0307C48.6036 17.314 47.9779 17.9649 47.2174 18.4226C46.4568 18.8804 45.5885 19.1288 44.7005 19.1426C43.5479 19.114 42.4381 18.7011 41.5478 17.9696C40.6574 17.2381 40.0373 16.2301 39.7868 15.106C39.7691 15.0521 39.7691 14.9987 39.751 14.9445C39.6452 14.523 39.5941 14.0896 39.5988 13.6551C39.5972 13.2424 39.642 12.8308 39.7333 12.4283C39.747 12.3497 39.7647 12.2719 39.7868 12.1953C40.0369 11.0708 40.6563 10.0623 41.547 9.33034C42.4373 8.59841 43.5471 8.18512 44.6997 8.15633C47.2013 8.15633 49.2804 10.0994 49.711 12.6699H41.1852L41.9202 14.9445H46.7706V14.9359H52.5802C52.6447 14.512 52.6774 14.0839 52.6786 13.6551C52.7006 11.5187 51.8724 9.461 50.3764 7.93428C48.8801 6.40752 46.8383 5.53672 44.6997 5.51318Z" fill="#06263B"/>
<path d="M20.0377 0.0112305H17.4127V2.91484H20.0377V0.0112305Z" fill="#06263B"/>
<path d="M57.9733 0.0112305H54.9889V21.6942H57.9733V0.0112305Z" fill="#06263B"/>
<path d="M67.2149 5.8125H63.685L58.0311 13.4681L64.4019 21.6965H68.1332L61.4478 13.296L67.2149 5.8125Z" fill="#06263B"/>
<path d="M7.19382 5.46193C5.44028 5.47328 3.75727 6.15328 2.48889 7.36296V1.45124L-0.120005 -0.0219727V13.0794C-0.130623 13.2605 -0.144775 13.4405 -0.144775 13.6243C-0.144775 18.1324 3.1409 21.7863 7.19382 21.7863C11.2467 21.7863 14.5324 18.1327 14.5324 13.6243C14.5324 9.11589 11.2471 5.46193 7.19382 5.46193ZM7.19382 18.847C4.59832 18.847 2.49832 16.5083 2.49832 13.6239C2.49832 10.7396 4.60028 8.40089 7.19382 8.40089C9.78736 8.40089 11.8901 10.7396 11.8901 13.6239C11.8901 16.5083 9.78736 18.847 7.19382 18.847Z" fill="#06263B"/>
<path d="M66.329 1.70826C66.3286 1.94531 66.375 2.18013 66.4654 2.39929C66.5559 2.61844 66.6884 2.81764 66.856 2.98548C67.0239 3.15332 67.2229 3.28651 67.4419 3.37744C67.6609 3.46837 67.8961 3.51525 68.1333 3.51541C68.3708 3.51535 68.6056 3.46856 68.825 3.37768C69.044 3.2868 69.2434 3.15362 69.411 2.98578C69.5789 2.81794 69.7118 2.61871 69.8022 2.3995C69.8927 2.18029 69.9391 1.9454 69.9387 1.70826C69.9371 1.23093 69.746 0.773711 69.4078 0.436702C69.0692 0.0996949 68.6111 -0.0896383 68.1333 -0.0898434C67.6554 -0.0901565 67.1969 0.0990577 66.8587 0.436211C66.5205 0.773365 66.3298 1.23088 66.329 1.70826ZM69.5793 1.71299C69.5785 1.90155 69.5403 2.08808 69.4672 2.26189C69.394 2.4357 69.2871 2.59336 69.1526 2.7258C69.0185 2.85823 68.8592 2.96286 68.6842 3.03364C68.5092 3.10442 68.322 3.13998 68.1333 3.13827C67.9445 3.14029 67.7573 3.10494 67.5823 3.03425C67.4073 2.96356 67.2476 2.85895 67.1135 2.72643C66.979 2.59392 66.8725 2.43613 66.7993 2.26218C66.7266 2.08823 66.6888 1.90158 66.6884 1.71299C66.6892 1.52446 66.727 1.33792 66.8001 1.16409C66.8733 0.990265 66.9798 0.832588 67.1143 0.700101C67.2484 0.567618 67.4077 0.462945 67.5823 0.392104C67.7573 0.321262 67.9445 0.28565 68.1333 0.287308C68.322 0.285547 68.5092 0.321074 68.6842 0.391865C68.8592 0.462654 69.0185 0.5673 69.153 0.699791C69.2875 0.832282 69.394 0.99001 69.4672 1.16389C69.5403 1.33777 69.5785 1.52437 69.5793 1.71299Z" fill="#06263B"/>
<path d="M68.578 1.76917V1.75975C68.692 1.73814 68.7943 1.6752 68.8651 1.58298C68.9354 1.49078 68.9697 1.37578 68.9606 1.26004C68.9606 0.834964 68.6157 0.698242 68.2528 0.698242H67.3644V2.76036H67.7183V1.93535H68.1383C68.4922 1.93535 68.5587 2.04889 68.5733 2.37889C68.5646 2.50933 68.5858 2.64003 68.635 2.76114H68.9889C68.9339 2.60848 68.9115 2.44602 68.9233 2.28421C68.9083 2.01432 68.8611 1.84932 68.578 1.76917ZM68.1713 1.60417H67.7187V1.03336H68.1906C68.3279 1.03336 68.521 1.0475 68.5839 1.19364C68.5969 1.21871 68.6047 1.24605 68.6075 1.27417C68.6063 1.5421 68.3986 1.60496 68.1702 1.60496L68.1713 1.60417Z" fill="#06263B"/>
</g>
<defs>
<clipPath id="clip0_1960_420">
<rect width="70" height="22" fill="white"/>
</clipPath>
</defs>
</svg>
