<svg width="28" height="27" viewBox="0 0 28 27" fill="none" xmlns="http://www.w3.org/2000/svg">
<path d="M26.311 11.7117C25.8301 11.2319 25.1981 10.9696 24.5215 10.9696C21.9601 10.9696 19.4323 11.3825 17.0052 12.2027L15.8755 12.5822C15.8084 12.6045 15.7693 12.5096 15.8308 12.4817L16.9045 11.9516C19.2031 10.819 21.2834 9.3292 23.0954 7.52142C23.5707 7.04715 23.8336 6.42778 23.8392 5.76937C23.8559 4.38566 22.7262 3.23065 21.3393 3.20834C20.6515 3.19718 20.0027 3.465 19.5162 3.95043C17.7042 5.75821 16.2111 7.83386 15.0758 10.1271L14.5445 11.1984C14.511 11.2598 14.4215 11.2207 14.4439 11.1538L14.8241 10.0267C15.6462 7.60509 16.0601 5.08312 16.0601 2.52761C16.0601 1.85246 15.7972 1.21636 15.3163 0.742089C14.8353 0.262238 14.2034 0 13.5267 0C12.85 0 12.2125 0.262238 11.7372 0.742089C11.2562 1.22194 10.9933 1.85246 10.9933 2.52761C10.9933 5.08312 11.4072 7.60509 12.2293 10.0267L12.6095 11.1538C12.6319 11.2207 12.5369 11.2598 12.5089 11.1984L11.9776 10.1271C10.8423 7.83386 9.34918 5.75821 7.5372 3.95043C7.06184 3.47616 6.44112 3.21392 5.78118 3.20834C4.38866 3.19161 3.23103 4.31866 3.21425 5.70243C3.20307 6.38873 3.47151 7.03599 3.95805 7.52142C5.76999 9.3292 7.85036 10.819 10.1489 11.9516L11.2226 12.4817C11.2842 12.5152 11.245 12.6045 11.1779 12.5822L10.0482 12.2027C7.62107 11.3825 5.09331 10.9696 2.53198 10.9696C1.85529 10.9696 1.21775 11.2319 0.742394 11.7117C-0.247465 12.6993 -0.247465 14.3007 0.742394 15.2883C1.22334 15.7681 1.85529 16.0304 2.53198 16.0304C5.09331 16.0304 7.62107 15.6175 10.0482 14.7973L11.1779 14.4178C11.245 14.3955 11.2842 14.4904 11.2226 14.5183L10.1489 15.0484C7.85036 16.181 5.76999 17.6708 3.95805 19.4786C3.48269 19.9529 3.21984 20.5722 3.21425 21.2306C3.19747 22.6144 4.32715 23.7693 5.71407 23.7917C6.40192 23.8029 7.05066 23.535 7.5372 23.0496C9.34918 21.2418 10.8423 19.1661 11.9776 16.8729L12.5089 15.8016C12.5424 15.7402 12.6319 15.7793 12.6095 15.8462L12.2293 16.9733C11.4072 19.3949 10.9933 21.9169 10.9933 24.4724C10.9933 25.1475 11.2562 25.7836 11.7372 26.2579C12.2181 26.7378 12.85 27 13.5267 27C14.2034 27 14.8409 26.7378 15.3163 26.2579C15.7972 25.7781 16.0601 25.1475 16.0601 24.4724C16.0601 21.9169 15.6462 19.3949 14.8241 16.9733L14.4439 15.8462C14.4215 15.7793 14.5166 15.7402 14.5445 15.8016L15.0758 16.8729C16.2111 19.1661 17.7042 21.2418 19.5162 23.0496C19.9916 23.5238 20.6123 23.7861 21.2722 23.7917C22.6592 23.8085 23.8168 22.6813 23.8392 21.2976C23.8503 20.6113 23.5819 19.9641 23.0954 19.4786C21.2834 17.6708 19.2031 16.181 16.9045 15.0484L15.8308 14.5183C15.7693 14.4848 15.8084 14.3955 15.8755 14.4178L17.0052 14.7973C19.4323 15.6175 21.9601 16.0304 24.5215 16.0304C25.1981 16.0304 25.8356 15.7681 26.311 15.2883C27.3009 14.3007 27.3009 12.6937 26.311 11.7117Z" fill="#31BACF"/>
</svg>
