<svg width="40" height="38" viewBox="0 0 40 38" fill="none" xmlns="http://www.w3.org/2000/svg">
<path d="M20.3864 16.2853C19.9554 16.6342 19.3233 16.6342 18.8923 16.2853C14.808 12.9791 12.7079 9.7706 12.7079 6.61878C12.7078 2.9633 15.8112 0 19.6393 0C23.4674 0 26.5709 2.9633 26.5709 6.61878C26.5709 9.7706 24.4707 12.9791 20.3864 16.2853ZM20.3864 21.2212C24.4707 24.5273 26.5709 27.7359 26.5709 30.8877C26.5709 34.5432 23.4675 37.5065 19.6393 37.5065C15.8111 37.5065 12.7078 34.5432 12.7078 30.8877C12.7078 27.7359 14.8079 24.5273 18.8922 21.2212C19.3233 20.8723 19.9553 20.8723 20.3864 21.2212ZM22.2239 19.4666C21.8585 19.055 21.8585 18.4515 22.2239 18.0399C25.6863 14.1399 29.0465 12.1345 32.3471 12.1345C36.1753 12.1345 39.2786 15.0978 39.2786 18.7533C39.2786 22.4088 36.1753 25.372 32.3471 25.372C29.0464 25.372 25.6862 23.3667 22.2239 19.4666ZM17.0547 19.4666C13.5923 23.3667 10.2321 25.372 6.93154 25.372C3.10332 25.372 0 22.4088 0 18.7533C0 15.0978 3.10332 12.1344 6.93154 12.1344C10.2322 12.1344 13.5924 14.1398 17.0547 18.0399C17.4201 18.4515 17.4201 19.055 17.0547 19.4666Z" fill="#CD5F37"/>
</svg>
